HIERARCHY
ROOT Hips
{
	OFFSET 59.216541 104.939850 -11.937598
	CHANNELS 6 Xposition Yposition Zposition Xrotation Yrotation Zrotation
	JOINT Chest
	{
		OFFSET 0.451118 13.515518 1.811459
		CHANNELS 3 Xrotation Yrotation Zrotation
		JOINT Chest2
		{
			OFFSET -0.096783 20.281113 6.908935
			CHANNELS 3 Xrotation Yrotation Zrotation
			JOINT Chest3
			{
				OFFSET -2.051327 14.435211 3.199476
				CHANNELS 3 Xrotation Yrotation Zrotation
				JOINT Neck
				{
					OFFSET -1.182671 16.801071 3.865423
					CHANNELS 3 Xrotation Yrotation Zrotation
					JOINT Head
					{
						OFFSET -2.151047 9.843994 2.880351
						CHANNELS 3 Xrotation Yrotation Zrotation
						End Site
						{
							OFFSET -2.165630 9.860901 2.810771
						}
					}
				}
				JOINT LeftCollar
				{
					OFFSET 4.103901 13.025513 3.911325
					CHANNELS 3 Xrotation Yrotation Zrotation
					JOINT LeftUpArm
					{
						OFFSET 11.816528 2.764008 -12.697606
						CHANNELS 3 Xrotation Yrotation Zrotation
						JOINT LeftLowArm
						{
							OFFSET 32.467285 -8.983795 -2.212373
							CHANNELS 3 Xrotation Yrotation Zrotation
							JOINT LeftHand
							{
								OFFSET 19.446609 7.320099 21.660849
								CHANNELS 3 Xrotation Yrotation Zrotation
								End Site
								{
									OFFSET 4.250175 1.599884 4.734095
								}
							}
						}
					}
				}
				JOINT RightCollar
				{
					OFFSET -3.545448 11.735916 7.176825
					CHANNELS 3 Xrotation Yrotation Zrotation
					JOINT RightUpArm
					{
						OFFSET -15.774113 -7.271881 -2.606453
						CHANNELS 3 Xrotation Yrotation Zrotation
						JOINT RightLowArm
						{
							OFFSET -11.824818 -31.585602 -1.502948
							CHANNELS 3 Xrotation Yrotation Zrotation
							JOINT RightHand
							{
								OFFSET -2.088036 -24.138390 17.718168
								CHANNELS 3 Xrotation Yrotation Zrotation
								End Site
								{
									OFFSET -0.456366 -5.275681 3.872486
								}
							}
						}
					}
				}
			}
		}
	}
	JOINT LeftUpLeg
	{
		OFFSET 8.599888 0.400101 -5.128449
		CHANNELS 3 Xrotation Yrotation Zrotation
		JOINT LeftLowLeg
		{
			OFFSET -3.494911 -46.540981 -8.106346
			CHANNELS 3 Xrotation Yrotation Zrotation
			JOINT LeftFoot
			{
				OFFSET -26.174850 -31.770052 -17.495987
				CHANNELS 3 Xrotation Yrotation Zrotation
				JOINT LeftToe
				{
					OFFSET 4.894230 -22.117462 6.813534
					CHANNELS 3 Xrotation Yrotation Zrotation
					End Site
					{
						OFFSET 15.680611 -12.096736 12.936241
					}
				}
			}
		}
	}
	JOINT RightUpLeg
	{
		OFFSET -8.599895 -0.400299 5.128425
		CHANNELS 3 Xrotation Yrotation Zrotation
		JOINT RightLowLeg
		{
			OFFSET 16.451538 -41.656570 15.430103
			CHANNELS 3 Xrotation Yrotation Zrotation
			JOINT RightFoot
			{
				OFFSET 14.133392 -39.906048 -14.433757
				CHANNELS 3 Xrotation Yrotation Zrotation
				JOINT RightToe
				{
					OFFSET 15.709534 -17.601341 1.720376
					CHANNELS 3 Xrotation Yrotation Zrotation
					End Site
					{
						OFFSET 13.672806 -10.801199 15.998270
					}
				}
			}
		}
	}
}
MOTION
Frames: 11
Frame Time: 0.033333
-30.592930 103.125038 -2.498357 -178.858407 -238.106077 182.732067 -7.361213 0.888073 -1.141924 -5.752995 5.022836 -2.643179 -0.385715 18.215426 4.942864 6.913155 5.787439 -6.391749 0.000000 0.000000 0.000001 -3.904052 10.847409 4.750493 5.606974 17.866895 -1.706721 19.695916 45.449370 -20.835799 0.000002 -0.000003 0.000001 -11.972038 11.454815 -38.355805 -33.201727 48.131114 -35.424462 30.106678 -29.495660 -34.460985 0.000001 -0.000002 0.000000 -15.888704 -6.737883 25.006094 27.130305 -13.135200 -6.519651 6.498023 -6.393137 -8.380789 -0.000002 -0.000004 -0.000001 8.724179 -1.251730 -11.799744 -8.437114 -2.408333 -13.072390 -30.353651 -9.296392 12.097358 -0.000001 0.000002 0.000002 
-27.720989 103.275803 -3.015872 -178.686314 -231.969863 183.031339 -7.548654 1.343478 -2.691309 -5.950108 4.306434 -1.879786 -0.483346 20.949869 6.253205 5.699766 6.769334 -6.729767 -0.000001 -0.000001 -0.000000 -4.309452 11.818229 5.455297 6.104059 19.159814 -1.534678 21.391326 44.708854 -23.128983 0.000001 -0.000001 0.000002 -11.469184 12.477278 -38.497064 -33.203322 48.911333 -36.065339 31.549839 -30.366707 -34.163117 -0.000000 -0.000000 -0.000002 -20.255025 -7.348485 24.007333 22.960931 -10.614093 -2.567188 0.003215 -8.031850 -9.267000 -0.000004 -0.000001 -0.000000 10.900783 -1.554058 -13.615190 -8.256720 -2.115210 -13.721250 -26.690112 -10.469674 11.570000 0.000004 0.000003 0.000002 
-24.904507 103.410500 -3.526710 -179.293217 -226.435743 183.098930 -6.926106 1.240587 -2.731358 -6.538383 4.750553 -2.087912 -0.709934 23.640885 7.848674 4.399497 6.777701 -6.354264 0.000000 -0.000000 0.000001 -4.519210 12.151997 5.858874 6.352771 19.431956 -1.155572 22.399278 44.823123 -24.504811 0.000000 -0.000001 0.000002 -10.988480 12.979817 -38.074630 -33.146519 49.412184 -36.920226 30.567812 -30.856722 -35.585118 -0.000001 -0.000002 -0.000000 -21.533295 -7.916953 24.599469 19.005720 -8.622354 0.806509 -2.115550 -7.469690 -8.425653 -0.000001 -0.000002 -0.000003 13.258628 -1.545763 -14.203467 -6.837488 -1.229622 -14.177112 -24.826909 -12.271247 11.804821 -0.000003 0.000005 0.000003 
-21.912724 103.574104 -4.004641 -179.385561 -222.641136 183.211259 -6.648057 1.146734 -2.600795 -7.863656 6.722898 -3.523837 0.171578 22.888229 10.124582 4.445798 6.728042 -6.323306 0.000001 -0.000001 -0.000001 -4.648888 12.086238 6.015077 5.896008 20.831589 -1.281474 21.541995 45.036963 -24.713846 -0.000000 -0.000001 -0.000000 -10.740365 12.406720 -36.114168 -34.496618 50.003658 -36.918122 25.677367 -30.628815 -38.660548 0.000000 -0.000001 0.000001 -23.044602 -8.255572 24.215836 13.611229 -6.589874 4.220025 0.161054 -6.762341 -8.346159 0.000001 -0.000000 -0.000002 13.865655 -1.707520 -15.224855 -3.568463 0.616880 -15.028093 -22.466596 -13.313045 11.833847 0.000002 -0.000001 -0.000000 
-18.786846 103.716927 -4.478884 -179.386832 -220.178743 183.515531 -5.425551 0.823186 -1.826710 -9.190346 8.773247 -4.887184 0.787051 21.143815 10.753163 4.977960 4.789421 -4.684791 -0.000000 -0.000001 -0.000000 -3.985509 11.229584 6.404870 5.694616 22.439410 -1.057287 21.800707 45.595556 -25.736177 -0.000000 -0.000001 0.000002 -10.420732 13.289570 -35.815504 -35.663672 49.757737 -35.612108 21.601785 -29.907831 -41.545879 -0.000005 0.000004 -0.000003 -23.800265 -8.131328 23.453157 9.383615 -5.284967 6.066331 1.629864 -7.040997 -9.160042 -0.000000 -0.000002 -0.000003 11.819748 -1.702887 -15.062809 2.352905 3.238545 -17.414945 -19.512307 -10.384322 10.587706 -0.000001 0.000002 -0.000000 
-15.770641 103.807770 -4.966332 -179.503601 -218.429436 183.812972 -4.989691 0.690146 -1.571701 -9.091264 9.272026 -5.466136 0.635425 20.719910 10.859733 5.355261 3.608072 -4.038024 0.000002 -0.000000 0.000001 -3.730133 10.866089 6.920404 5.439726 24.107672 -0.189729 21.542487 44.688794 -26.716562 -0.000000 -0.000001 -0.000000 -10.201923 14.176508 -35.394259 -36.885470 49.951427 -34.567844 17.524227 -28.931985 -44.311791 -0.000004 0.000001 -0.000003 -24.570561 -7.811324 22.229243 8.124201 -4.813901 6.675519 2.371323 -5.516887 -7.410936 -0.000000 -0.000001 -0.000000 8.659761 -1.662411 -14.537474 8.727255 5.290303 -19.948203 -18.075851 -5.865013 8.909225 -0.000000 0.000001 0.000004 
-12.596966 103.752319 -5.452184 -180.140570 -216.259253 183.907351 -5.233834 0.597330 -1.322807 -6.402286 7.095491 -4.646566 -1.197448 21.690763 9.983508 6.590853 3.005150 -3.731798 0.000002 -0.000000 0.000002 -3.533230 10.801166 7.785310 4.850199 26.333786 1.681797 20.242673 43.832411 -27.109434 -0.000001 0.000001 -0.000001 -9.558847 15.085671 -33.037065 -39.775511 50.909980 -32.071061 11.004038 -26.738264 -47.685372 -0.000003 0.000003 -0.000004 -23.656104 -7.256625 21.246731 10.189888 -5.393886 6.371097 -2.449620 -4.550606 -4.924452 -0.000003 0.000001 -0.000002 3.111197 -1.618600 -13.344295 16.062156 7.010209 -22.951570 -15.629343 -3.020881 7.109632 0.000003 0.000000 -0.000003 
-9.314640 103.528320 -5.946644 -180.255085 -215.318367 184.978325 -4.219773 0.552499 -1.220282 -7.139467 8.354838 -5.352346 -0.667087 19.176036 10.243353 8.034295 2.008043 -3.014509 0.000002 0.000001 0.000000 -3.165930 10.419293 7.285319 5.552425 27.664862 3.502004 20.464304 41.951835 -27.229845 -0.000001 0.000002 -0.000001 -8.424467 15.837913 -30.858460 -40.744592 52.082856 -30.629915 8.836538 -25.625131 -49.863130 0.000000 -0.000000 -0.000002 -21.384981 -6.543926 20.128182 11.355303 -5.601836 5.086898 -6.335972 -4.631434 -3.700731 -0.000001 -0.000006 -0.000000 -2.146439 -1.564512 -12.349878 19.263838 7.491728 -24.893203 -13.289770 -2.378516 5.942587 0.000000 0.000000 0.000003 
-6.225361 103.241035 -6.414714 -179.685147 -214.979193 185.778864 -4.116973 0.766369 -1.744813 -6.978384 8.178866 -5.288633 -0.626765 17.734972 10.008743 9.668570 1.469456 -3.278260 -0.000000 -0.000001 0.000001 -3.115999 10.504069 7.587365 5.117991 27.944162 5.079607 21.132042 40.675351 -28.999224 0.000001 0.000003 0.000001 -8.087161 16.293568 -29.588335 -43.164316 51.757592 -26.844928 6.922120 -24.959065 -50.930296 -0.000000 -0.000001 -0.000003 -20.603426 -5.898752 19.098722 12.986518 -6.139727 4.047731 -9.801728 -5.598776 -3.908417 0.000002 -0.000003 0.000002 -5.533350 -1.645467 -10.925187 16.846214 6.451153 -27.438362 -17.425657 -2.206430 6.998293 0.000000 0.000004 0.000003 
-3.166382 102.841408 -6.949242 -179.732726 -215.239164 185.867943 -2.850013 0.496423 -1.004983 -6.788810 8.278900 -5.554181 -0.699983 16.102946 9.538951 11.659704 -0.446197 -2.260170 -0.000001 0.000003 0.000001 -2.055149 9.046976 7.609458 5.036588 25.982526 0.739659 19.786915 41.931190 -25.858763 0.000002 -0.000001 -0.000000 -7.709449 16.977453 -28.585885 -44.543523 50.796807 -22.909651 4.659173 -23.411114 -52.682892 0.000004 0.000001 -0.000007 -20.421607 -5.736538 18.738190 12.815884 -6.123939 2.061167 -9.448315 -3.368079 -0.856741 -0.000001 -0.000002 -0.000003 -10.085379 -1.670980 -7.980151 14.037465 5.761335 -27.773844 -18.490434 1.036082 6.406365 0.000003 0.000002 -0.000000 
-0.118782 102.285019 -7.453966 -179.861461 -213.553692 185.509645 -1.246575 0.160805 -0.102843 -5.161681 6.183722 -4.360733 -1.509507 19.029561 8.675700 13.846350 -3.886974 0.351844 0.000001 0.000003 0.000002 -0.792137 7.071297 9.561397 4.541115 24.035579 3.208994 22.993075 45.571985 -30.129672 0.000002 -0.000001 -0.000000 -7.489365 18.950712 -28.134524 -43.936254 48.068897 -21.456288 4.178293 -23.035568 -51.854250 -0.000003 0.000000 -0.000004 -20.766866 -6.011378 19.244826 13.858240 -6.344620 -2.917318 -8.674251 0.712986 4.301714 -0.000000 -0.000003 -0.000002 -13.962974 -1.906231 -5.287182 11.335426 5.447678 -23.819813 -20.554703 3.342920 6.795003 0.000004 0.000000 0.000001 
